<svg width="510" height="137" viewBox="0 0 510 137" fill="none" xmlns="http://www.w3.org/2000/svg">
<path d="M34.6509 52.8589C31.0327 52.8589 30.3647 52.1074 30.3647 47.9604V19.6831C30.3647 15.5361 31.1162 14.9517 34.9849 14.7847V13.6436C32.981 13.7549 29.001 13.8105 26.1621 13.8105C22.9058 13.8105 20.9019 13.6436 18.0073 13.6436C16.3374 13.6436 14.6953 13.8105 12.9976 13.8105C11.1606 13.8105 8.71143 13.7549 7.125 13.6436V14.7847C10.7432 14.9238 11.7729 15.5361 11.7729 18.4028C11.7729 18.7925 11.7451 19.21 11.7173 19.6831C10.771 34.8516 9.9082 52.8589 1.14111 52.8589H0.111328C0.389648 55.8091 0.500977 58.8149 0.500977 60.2622C0.500977 61.7651 0.445312 63.0454 0.333984 63.9639H1.64209C2.83887 56.4214 5.98389 54 11.3276 54H25.1602C30.5039 54 33.6489 56.4214 34.8457 63.9639H36.1538C36.0425 63.0454 35.9868 61.7651 35.9868 60.2622C35.9868 58.8149 36.0981 55.8091 36.3765 52.8589H34.6509ZM21.3193 47.9604C21.3193 52.1074 20.5679 52.8589 16.6992 52.8589H4.98193C12.0513 48.3501 12.0234 30.8716 13.0532 19.6831C13.3315 15.6475 14.1943 14.7847 16.6436 14.7847H17.3672C20.2896 14.7847 21.3193 15.5361 21.3193 19.6831V47.9604ZM84.871 13.6436C82.9228 13.7549 79.4994 13.8105 75.8534 13.8105C72.7084 13.8105 69.2851 13.7549 67.2533 13.6436V14.7847C70.5932 14.9517 71.4281 15.4526 71.5395 18.7925L55.2855 46.3462V19.6831C55.2855 15.5361 55.9535 14.9517 59.5717 14.7847V13.6436C57.5121 13.7549 54.1166 13.8105 50.9437 13.8105C47.2978 13.8105 43.8744 13.7549 41.954 13.6436V14.7847C45.5443 14.9517 46.2123 15.5361 46.2123 19.6831V47.9604C46.2123 52.1074 45.5443 52.6919 41.954 52.8589V54C43.8744 53.8887 47.2978 53.833 50.9437 53.833C54.1166 53.833 57.5121 53.8887 59.5717 54V52.8589C56.204 52.6919 55.3969 52.1909 55.2855 48.7676L71.5395 21.2695V47.9604C71.5395 52.1074 70.8715 52.6919 67.2533 52.8589V54C69.2851 53.8887 72.7084 53.833 75.8534 53.833C79.4994 53.833 82.9228 53.8887 84.871 54V52.8589C81.2807 52.6919 80.5849 52.1074 80.5849 47.9604V19.6831C80.5849 15.5361 81.2807 14.9517 84.871 14.7847V13.6436ZM107.148 12.8364C102.054 12.8364 99.9949 14.3394 97.7127 15.9258C97.0726 16.3433 96.6829 16.5381 96.2933 16.5381C95.4026 16.5381 95.1243 15.4805 94.8738 13.4766H93.5657C93.7327 16.0928 93.8162 19.5161 93.8162 26.6968H95.1243C95.5418 20.1006 98.6033 14.4785 105.033 14.4785C109.124 14.4785 111.35 16.8442 111.35 22.4941C111.35 26.6689 110.265 30.6211 105.979 32.3467C105.2 32.1797 104.365 31.9849 103.585 31.9849C102.722 31.9849 102.277 32.3467 102.277 32.9033C102.277 33.5991 102.862 33.8774 103.502 33.8774C104.365 33.8774 105.2 33.5435 105.923 33.126C111.211 33.3486 113.577 38.0244 113.577 43.2847C113.577 49.9365 109.847 53.5547 103.53 53.5547C100.134 53.5547 97.4065 52.6641 96.0428 51.5508C98.7425 50.9106 100.385 49.0737 100.385 46.7637C100.385 43.7856 98.6033 42.2271 95.8758 42.2271C93.2596 42.2271 91.0608 43.9526 91.0608 46.875C91.0608 49.1572 92.5638 50.9663 94.178 52.1074C96.7942 54 100.552 54.8071 104.448 54.8071C113.41 54.8071 122.288 50.688 122.288 43.1455C122.288 36.0483 114.106 32.7363 106.842 32.625C112.547 31.3726 120.09 27.8101 120.117 21.4644C120.145 16.1206 114.802 12.8364 107.148 12.8364ZM147.042 13.5322C146.43 13.5879 145.734 13.6157 145.066 13.6157C144.37 13.6157 143.702 13.5879 143.09 13.5322L130.12 46.875C128.506 51.0776 126.836 52.5527 125.166 52.8589V54C126.307 53.8887 127.866 53.833 129.536 53.833C131.902 53.833 134.045 53.8887 136.633 54V52.8589C133.516 52.7754 131.568 51.9961 131.568 48.9902C131.568 47.4873 132.041 45.4556 133.126 42.6724L134.657 38.7202H147.042L150.466 48.0718C150.911 49.2129 151.133 50.1035 151.133 50.7715C151.133 52.3301 149.853 52.7476 147.126 52.8589V54C149.018 53.8887 152.275 53.833 155.809 53.833C158.926 53.833 162.211 53.8887 164.465 54V52.8589C163.38 52.8032 161.932 51.9404 160.875 49.2129L147.042 13.5322ZM146.625 37.5791H135.074L140.975 22.2437L146.625 37.5791ZM180.257 8.10498C182.428 9.21826 185.879 10.1089 190.332 10.1089C194.73 10.1089 198.181 9.21826 200.352 8.10498C202.383 7.0752 203.775 5.73926 203.775 3.90234C203.775 1.73145 201.855 0.117188 199.238 0.117188C196.594 0.117188 194.674 1.70361 194.674 3.93018C194.674 5.85059 196.038 7.10303 198.097 7.604C195.899 8.63379 192.614 8.96777 190.332 8.96777C187.994 8.96777 184.71 8.63379 182.511 7.63184C184.432 7.18652 186.018 5.96191 186.018 3.93018C186.018 1.67578 184.042 0.117188 181.398 0.117188C178.726 0.117188 176.917 1.75928 176.917 3.90234C176.917 5.76709 178.281 7.10303 180.257 8.10498ZM211.763 13.6436C209.815 13.7549 206.391 13.8105 202.745 13.8105C199.6 13.8105 196.177 13.7549 194.145 13.6436V14.7847C197.485 14.9517 198.32 15.4526 198.431 18.7925L182.177 46.3462V19.6831C182.177 15.5361 182.845 14.9517 186.463 14.7847V13.6436C184.404 13.7549 181.008 13.8105 177.836 13.8105C174.19 13.8105 170.766 13.7549 168.846 13.6436V14.7847C172.436 14.9517 173.104 15.5361 173.104 19.6831V47.9604C173.104 52.1074 172.436 52.6919 168.846 52.8589V54C170.766 53.8887 174.19 53.833 177.836 53.833C181.008 53.833 184.404 53.8887 186.463 54V52.8589C183.096 52.6919 182.289 52.1909 182.177 48.7676L198.431 21.2695V47.9604C198.431 52.1074 197.763 52.6919 194.145 52.8589V54C196.177 53.8887 199.6 53.833 202.745 53.833C206.391 53.833 209.815 53.8887 211.763 54V52.8589C208.172 52.6919 207.477 52.1074 207.477 47.9604V19.6831C207.477 15.5361 208.172 14.9517 211.763 14.7847V13.6436ZM260.229 13.6436C258.365 13.7549 255.081 13.8105 251.574 13.8105C248.262 13.8105 244.727 13.7549 242.612 13.6436V14.7847C246.23 14.9517 246.898 15.5361 246.898 19.6831V33.126H231.785V19.6831C231.785 15.5361 232.425 14.9517 236.071 14.7847V13.6436C234.012 13.7549 230.616 13.8105 227.443 13.8105C223.797 13.8105 220.374 13.7549 218.454 13.6436V14.7847C222.044 14.9517 222.712 15.5361 222.712 19.6831V47.9604C222.712 52.1074 222.072 52.6919 218.454 52.8589V54C220.374 53.8887 223.797 53.833 227.443 53.833C230.616 53.833 234.012 53.8887 236.071 54V52.8589C232.453 52.6919 231.785 52.1074 231.785 47.9604V34.2671H246.898V47.9604C246.898 52.1074 246.258 52.6919 242.612 52.8589V54C244.727 53.8887 248.262 53.833 251.574 53.833C255.081 53.833 258.365 53.8887 260.229 54V52.8589C256.639 52.6919 255.943 52.1074 255.943 47.9604V19.6831C255.943 15.5361 256.583 14.9517 260.229 14.7847V13.6436ZM298.176 45.3442C298.176 43.4795 298.231 41.7817 298.343 40.5571H297.035C295.615 49.7417 292.108 52.6919 287.015 52.6919H284.204C280.892 52.6919 280.28 52.1909 280.28 48.6284V34.2671H282.117C286.681 34.2671 288.49 37.8018 289.075 41.8096H290.383C290.104 37.4678 290.049 35.5752 290.049 33.7104C290.049 32.8755 290.021 32.0405 290.021 30.9829C290.021 29.6748 290.049 28.0327 290.216 25.6113H288.908C288.295 28.7007 286.681 33.126 282.117 33.126H280.28V19.0151C280.28 15.4526 280.892 14.9517 284.204 14.9517H286.542C291.774 14.9517 294.752 17.5957 295.893 25.9453H297.202C297.09 25.0269 297.035 23.5796 297.035 22.0767C297.035 20.4346 297.146 17.0112 297.424 13.6436C293.917 13.8105 288.991 13.8105 285.512 13.8105C281.699 13.8105 273.155 13.8105 266.948 13.6436V14.7847C270.538 14.9517 271.206 15.5361 271.206 19.6831V47.9604C271.206 52.1074 270.566 52.6919 266.948 52.8589V54C273.155 53.833 281.699 53.833 285.512 53.833C289.353 53.833 294.697 53.833 298.565 54C298.231 50.5767 298.176 47.042 298.176 45.3442ZM319.256 37.6904H322.289C335.732 37.6904 339.323 30.4541 339.323 24.9434C339.323 18.3193 334.146 13.6992 323.542 13.6992C322.095 13.6992 318.309 13.8105 314.58 13.8105C311.379 13.8105 307.845 13.7549 305.924 13.6436V14.7847C309.514 14.9517 310.182 15.5361 310.182 19.6831V47.9604C310.182 52.1074 309.542 52.6919 305.924 52.8589V54C308.401 53.9165 311.685 53.833 314.97 53.833C319.033 53.833 323.013 53.9165 325.351 54V52.7476C320.285 52.6919 319.256 52.0796 319.256 47.6265V37.6904ZM322.79 14.7847C327.967 14.7847 329.86 18.375 329.86 25.5557C329.86 31.3726 328.44 36.5493 321.705 36.5493H319.256V19.6831C319.256 15.7588 319.868 14.7847 322.79 14.7847ZM365.997 12.8364C354.14 12.8364 345.819 21.4087 345.819 34.1558C345.819 47.209 353.862 54.8071 365.941 54.8071C370.84 54.8071 373.678 53.0815 376.462 51.1055C376.935 50.7993 377.324 50.6323 377.658 50.6323C378.466 50.6323 378.827 51.6621 379.05 54H380.358C380.191 50.9663 380.135 46.875 380.135 39.6387H378.799C378.271 45.2051 377.575 48.3779 374.625 50.6602C372.788 52.4971 370.032 53.4155 367.528 53.4155C359.373 53.4155 355.949 44.1475 355.949 33.9331C355.949 23.8579 359.122 14.3115 367.305 14.3115C370.005 14.3115 372.621 15.2856 374.513 17.1226C377.464 19.4604 378.187 22.2158 378.799 27.4482H380.135C380.135 20.4902 380.191 16.5659 380.358 13.6436H379.05C378.827 15.9814 378.382 17.0391 377.575 17.0391C377.269 17.0391 376.879 16.8721 376.462 16.5381C373.957 14.6177 371.007 12.8364 365.997 12.8364ZM426.236 50.7993C425.485 51.6621 424.9 52.1074 423.954 52.1074C422.507 52.1074 421.895 51.0776 421.282 48.0161L419.612 40.3901C418.388 34.8516 414.018 32.959 407.004 32.5415L417.553 20.1841C420.614 16.6772 423.37 15.2856 425.847 14.7568V13.6436C424.483 13.7549 422.702 13.8105 420.447 13.8105C417.108 13.8105 414.825 13.7549 412.07 13.6436V14.7568C414.686 14.8403 416.245 15.9258 416.245 17.8184C416.245 19.1821 415.41 20.9634 413.601 23.1064L410.261 27.1699C407.199 30.6489 404.861 32.3188 401.716 32.458V19.6831C401.716 15.5361 402.357 14.9517 406.003 14.7847V13.6436C403.943 13.7549 400.547 13.8105 397.375 13.8105C393.729 13.8105 390.305 13.7549 388.385 13.6436V14.7847C391.975 14.9517 392.643 15.5361 392.643 19.6831V47.9604C392.643 52.1074 392.003 52.6919 388.385 52.8589V54C390.305 53.8887 393.729 53.833 397.375 53.833C400.547 53.833 403.943 53.8887 406.003 54V52.8589C402.384 52.6919 401.716 52.1074 401.716 47.9604V33.4321H402.496C407.951 33.4321 409.342 35.4082 410.233 39.9448L411.736 48.6284C412.627 53.4434 415.354 54.8071 419.445 54.8071C422.813 54.8071 425.04 53.7495 427.016 51.4951L426.236 50.7993ZM451.436 13.5322C450.823 13.5879 450.127 13.6157 449.459 13.6157C448.764 13.6157 448.096 13.5879 447.483 13.5322L434.514 46.875C432.899 51.0776 431.229 52.5527 429.56 52.8589V54C430.701 53.8887 432.259 53.833 433.929 53.833C436.295 53.833 438.438 53.8887 441.026 54V52.8589C437.909 52.7754 435.961 51.9961 435.961 48.9902C435.961 47.4873 436.434 45.4556 437.52 42.6724L439.05 38.7202H451.436L454.859 48.0718C455.304 49.2129 455.527 50.1035 455.527 50.7715C455.527 52.3301 454.247 52.7476 451.519 52.8589V54C453.412 53.8887 456.668 53.833 460.203 53.833C463.32 53.833 466.604 53.8887 468.858 54V52.8589C467.773 52.8032 466.326 51.9404 465.268 49.2129L451.436 13.5322ZM451.018 37.5791H439.468L445.368 22.2437L451.018 37.5791ZM509.142 13.6436C507.222 13.7549 503.687 13.8105 500.487 13.8105C496.757 13.8105 492.972 13.6992 491.553 13.6992C480.921 13.6992 475.744 17.4565 475.744 23.9692C475.744 28.8677 478.555 33.5713 488.38 34.6289L488.074 34.6846C481.561 35.5195 478.165 37.3008 477.191 42.1436L476.022 48.0161C475.41 51.0498 474.798 52.1074 473.378 52.1074C472.376 52.1074 471.764 51.6621 471.04 50.7993L470.261 51.4951C472.209 53.833 474.436 54.8071 477.692 54.8071C481.728 54.8071 484.483 53.3877 485.318 48.6284L486.348 42.9507C487.183 38.1914 488.101 34.8516 491.664 34.8516H495.811V47.9604C495.811 52.1074 495.143 52.6919 491.553 52.8589V54C493.584 53.8887 496.98 53.833 500.153 53.833C503.799 53.833 507.222 53.8887 509.142 54V52.8589C505.524 52.6919 504.884 52.1074 504.884 47.9604V19.6831C504.884 15.5361 505.552 14.9517 509.142 14.7847V13.6436ZM485.207 24.0806C485.207 18.2637 487.1 14.7847 492.276 14.7847C495.226 14.7847 495.811 15.7588 495.811 19.6831V33.7104H493.362C486.654 33.7104 485.207 29.48 485.207 24.0806ZM50.9604 95.6436C48.8452 95.7549 45.3105 95.8105 41.9985 95.8105H37.9629L27.4424 123.364L15.9478 95.6436C13.4707 95.7549 10.2422 95.8105 6.93018 95.8105C5.14893 95.8105 3.17285 95.7549 1.97607 95.6436V96.7847C5.59424 96.9517 6.26221 97.5361 6.26221 101.683V127.344C6.26221 132.855 5.62207 134.358 1.97607 134.859V136C3.17285 135.889 5.14893 135.833 6.93018 135.833C8.98975 135.833 11.6338 135.889 13.1089 136V134.859C8.07129 134.358 7.57031 132.911 7.57031 126.648V99.3174L22.9614 136.083H23.8799L37.6011 100.292V129.96C37.6011 134.107 36.8774 134.692 32.981 134.859V136C34.9292 135.889 38.3525 135.833 41.9985 135.833C45.3105 135.833 48.8452 135.889 50.9604 136V134.859C47.3423 134.692 46.6743 134.107 46.6743 129.96V101.683C46.6743 97.5361 47.3145 96.9517 50.9604 96.7847V95.6436ZM88.8788 127.344C88.8788 125.479 88.9345 123.782 89.0458 122.557H87.7377C86.3183 131.742 82.8114 134.692 77.7182 134.692H74.9071C71.5951 134.692 70.9828 134.191 70.9828 130.628V116.267H72.8197C77.3842 116.267 79.1933 119.802 79.7777 123.81H81.0858C80.8075 119.468 80.7519 117.575 80.7519 115.71C80.7519 114.875 80.724 114.041 80.724 112.983C80.724 111.675 80.7519 110.033 80.9188 107.611H79.6107C78.9984 110.701 77.3842 115.126 72.8197 115.126H70.9828V101.015C70.9828 97.4526 71.5951 96.9517 74.9071 96.9517H77.245C82.4774 96.9517 85.4555 99.5957 86.5966 107.945H87.9047C87.7934 107.027 87.7377 105.58 87.7377 104.077C87.7377 102.435 87.849 99.0112 88.1273 95.6436C84.6205 95.8105 79.6942 95.8105 76.2152 95.8105C72.4022 95.8105 63.8578 95.8105 57.6513 95.6436V96.7847C61.2416 96.9517 61.9096 97.5361 61.9096 101.683V129.96C61.9096 134.107 61.2694 134.692 57.6513 134.859V136C63.8578 135.833 72.4022 135.833 76.2152 135.833C80.0561 135.833 85.3998 135.833 89.2685 136C88.9345 132.577 88.8788 129.042 88.8788 127.344ZM109.959 112.009V101.015C109.959 97.4526 110.571 96.9517 113.883 96.9517H115.553C120.424 96.9517 123.402 99.5957 124.905 107.945H126.213C126.101 107.027 126.046 105.58 126.046 104.077C126.046 102.435 126.157 99.0112 126.435 95.6436C123.096 95.8105 118.475 95.8105 115.191 95.8105C111.378 95.8105 102.834 95.8105 96.6272 95.6436V96.7847C100.245 96.9517 100.886 97.5361 100.886 101.683V129.96C100.886 134.107 100.218 134.692 96.6272 134.859V136C98.5477 135.889 102.221 135.833 104.977 135.833C109.179 135.833 111.74 135.972 113.605 135.972C125.239 135.972 129.859 130.573 129.859 124.032C129.859 117.798 125.712 111.981 113.326 111.981L109.959 112.009ZM113.243 134.859C110.46 134.859 109.959 133.829 109.959 129.96V113.094H112.213C118.698 113.094 120.396 117.575 120.396 124.283C120.396 130.795 118.893 134.859 113.243 134.859ZM167.666 127.344C167.666 125.479 167.721 123.782 167.833 122.557H166.525C165.105 131.742 161.598 134.692 156.505 134.692H153.694C150.382 134.692 149.77 134.191 149.77 130.628V116.267H151.607C156.171 116.267 157.98 119.802 158.565 123.81H159.873C159.594 119.468 159.539 117.575 159.539 115.71C159.539 114.875 159.511 114.041 159.511 112.983C159.511 111.675 159.539 110.033 159.706 107.611H158.398C157.785 110.701 156.171 115.126 151.607 115.126H149.77V101.015C149.77 97.4526 150.382 96.9517 153.694 96.9517H156.032C161.264 96.9517 164.242 99.5957 165.383 107.945H166.692C166.58 107.027 166.525 105.58 166.525 104.077C166.525 102.435 166.636 99.0112 166.914 95.6436C163.407 95.8105 158.481 95.8105 155.002 95.8105C151.189 95.8105 142.645 95.8105 136.438 95.6436V96.7847C140.029 96.9517 140.696 97.5361 140.696 101.683V129.96C140.696 134.107 140.056 134.692 136.438 134.859V136C142.645 135.833 151.189 135.833 155.002 135.833C158.843 135.833 164.187 135.833 168.055 136C167.721 132.577 167.666 129.042 167.666 127.344ZM212.82 95.6436C210.816 95.7549 206.809 95.8105 203.97 95.8105C200.741 95.8105 198.737 95.6436 195.815 95.6436C194.173 95.6436 192.531 95.8105 190.805 95.8105C188.996 95.8105 186.547 95.7549 184.933 95.6436V96.7847C188.579 96.9238 189.608 97.5361 189.608 100.403C189.608 100.792 189.581 101.21 189.553 101.683C188.634 117.408 187.744 135.722 178.949 135.722C178.476 135.722 177.919 135.61 177.557 135.416C180.201 134.72 182.094 132.911 182.094 130.155C182.094 127.929 180.396 126.621 177.891 126.621C174.997 126.621 172.714 128.541 172.714 131.519C172.714 134.72 175.525 136.807 178.949 136.807C189.887 136.807 189.692 115.07 190.861 101.683C191.167 97.6475 192.058 96.7847 194.813 96.7847H195.203C198.125 96.7847 199.127 97.5361 199.127 101.683V129.96C199.127 134.107 198.292 134.692 194.062 134.859V136C196.26 135.889 199.934 135.833 203.525 135.833C207.226 135.833 210.816 135.889 212.82 136V134.859C208.924 134.692 208.2 134.107 208.2 129.96V101.683C208.2 97.5361 208.924 96.9517 212.82 96.7847V95.6436ZM232.62 112.009V101.683C232.62 97.5361 233.344 96.9517 237.352 96.7847V95.6436C235.208 95.7549 231.646 95.8105 228.278 95.8105C224.632 95.8105 221.209 95.7549 219.289 95.6436V96.7847C222.879 96.9517 223.547 97.5361 223.547 101.683V129.96C223.547 134.107 222.879 134.692 219.289 134.859V136C221.209 135.889 224.771 135.833 227.889 135.833C231.618 135.833 234.513 135.972 236.266 135.972C247.9 135.972 252.52 130.072 252.52 123.476C252.52 117.213 248.373 111.981 235.988 111.981L232.62 112.009ZM235.96 134.859C233.121 134.859 232.62 133.885 232.62 129.96V113.094H235.069C241.359 113.094 243.057 117.714 243.057 124.283C243.057 130.74 241.554 134.859 235.96 134.859Z" fill="#303032"/>
</svg>
